<svg width="311" height="258" viewBox="0 0 311 258" fill="none" xmlns="http://www.w3.org/2000/svg">
<path d="M275.383 134.094C277.168 129.841 272.066 126.219 267.788 128.109C259.235 131.863 249.994 133.794 240.654 133.779C204.035 133.779 174.355 104.694 174.355 68.81C174.342 56.6943 177.784 44.826 184.277 34.5975C186.762 30.6775 183.779 25.2525 179.229 26.4075C144.15 35.3587 118.25 66.6138 118.25 103.793C118.25 147.954 154.781 183.75 199.853 183.75C233.978 183.75 263.203 163.231 275.383 134.094Z" fill="#737F94"/>
<path d="M228.596 27.1512C223.959 24.0537 218.429 29.5837 221.518 34.2212L227.03 42.49C229.266 45.8427 230.46 49.7825 230.46 53.8125C230.46 57.8425 229.266 61.7823 227.03 65.135L221.518 73.4037C218.429 78.0412 223.968 83.5712 228.605 80.4737L236.865 74.9613C240.218 72.725 244.157 71.5317 248.188 71.5317C252.218 71.5317 256.157 72.725 259.51 74.9613L267.779 80.4737C272.416 83.5712 277.946 78.0412 274.849 73.4037L269.336 65.135C267.1 61.7823 265.907 57.8425 265.907 53.8125C265.907 49.7825 267.1 45.8427 269.336 42.49L274.849 34.2212C277.946 29.5837 272.416 24.0537 267.77 27.1512L259.51 32.6637C256.157 34.9 252.218 36.0933 248.188 36.0933C244.157 36.0933 240.218 34.9 236.865 32.6637L228.596 27.1512V27.1512Z" fill="#737F94"/>
<path d="M260.959 150.641C256.924 124.819 234.538 105 207.6 105C197.466 105 187.728 107.804 179.282 113.033C166.432 91.4382 143.299 78 117.6 78C77.8998 78 45.6 110.3 45.6 150C45.6 150.246 45.6 150.501 45.609 150.747C20.094 155.045 0 177.29 0 204C0 233.777 24.8226 258 54.6 258H252.6C282.378 258 307.2 233.777 307.2 204C307.2 177.062 286.781 154.676 260.959 150.641Z" fill="#6166F7"/>
</svg>
