<svg width="373" height="294" viewBox="0 0 373 294" fill="none" xmlns="http://www.w3.org/2000/svg">
<path d="M178.75 240.6C175.947 239.199 172.536 240.335 171.134 243.139L159.782 265.845C157.882 269.645 160.683 274.061 164.855 274.061C166.937 274.061 168.942 272.911 169.936 270.922L181.289 248.216C182.691 245.412 181.554 242.002 178.75 240.6V240.6Z" fill="#3D409A"/>
<path d="M229.838 240.6C227.034 239.199 223.624 240.335 222.222 243.139L210.869 265.845C208.969 269.645 211.77 274.061 215.942 274.061C218.024 274.061 220.029 272.911 221.024 270.922L232.376 248.216C233.778 245.412 232.642 242.002 229.838 240.6V240.6Z" fill="#3D409A"/>
<path d="M127.663 240.6C124.859 239.199 121.449 240.335 120.047 243.139L108.694 265.845C106.794 269.645 109.596 274.061 113.767 274.061C115.849 274.061 117.854 272.911 118.849 270.922L130.201 248.216C131.603 245.412 130.467 242.002 127.663 240.6Z" fill="#3D409A"/>
<path d="M76.5753 240.6C73.7719 239.199 70.3614 240.335 68.9597 243.139L57.6069 265.845C55.7068 269.645 58.5081 274.061 62.6798 274.061C64.762 274.061 66.7668 272.911 67.7613 270.922L79.114 248.216C80.5158 245.412 79.3794 242.002 76.5753 240.6V240.6Z" fill="#3D409A"/>
<path d="M144.692 260.468C141.888 259.066 138.478 260.202 137.076 263.006L125.723 285.712C123.823 289.512 126.625 293.928 130.796 293.928C132.879 293.928 134.883 292.778 135.878 290.789L147.231 268.084C148.632 265.28 147.496 261.87 144.692 260.468V260.468Z" fill="#3D409A"/>
<path d="M195.779 260.468C192.975 259.066 189.565 260.202 188.164 263.006L176.811 285.712C174.911 289.512 177.712 293.928 181.884 293.928C183.966 293.928 185.971 292.778 186.965 290.789L198.318 268.084C199.72 265.28 198.583 261.87 195.779 260.468V260.468Z" fill="#3D409A"/>
<path d="M93.6044 260.468C90.8006 259.066 87.3905 260.202 85.9888 263.006L74.6361 285.712C72.7359 289.512 75.5372 293.928 79.709 293.928C81.7911 293.928 83.796 292.778 84.7904 290.789L96.1431 268.084C97.5449 265.28 96.4085 261.87 93.6044 260.468V260.468Z" fill="#3D409A"/>
<path d="M325.959 72.6414C321.924 46.8192 299.538 27 272.6 27C262.466 27 252.728 29.8038 244.282 35.0334C231.432 13.4382 208.299 0 182.6 0C142.9 0 110.6 32.2998 110.6 72C110.6 72.246 110.6 72.501 110.609 72.747C85.094 77.0448 65 99.2898 65 126C65 155.777 89.8226 180 119.6 180H317.6C347.378 180 372.2 155.777 372.2 126C372.2 99.0618 351.781 76.6758 325.959 72.6414Z" fill="#3D409A"/>
<path d="M260.959 119.641C256.924 93.8192 234.538 74 207.6 74C197.466 74 187.728 76.8038 179.282 82.0334C166.432 60.4382 143.299 47 117.6 47C77.8998 47 45.6 79.2998 45.6 119C45.6 119.246 45.6 119.501 45.609 119.747C20.094 124.045 0 146.29 0 173C0 202.777 24.8226 227 54.6 227H252.6C282.378 227 307.2 202.777 307.2 173C307.2 146.062 286.781 123.676 260.959 119.641Z" fill="#6166F7"/>
</svg>
