<svg width="311" height="325" viewBox="0 0 311 325" fill="none" xmlns="http://www.w3.org/2000/svg">
<path d="M284.383 134.094C286.168 129.841 281.066 126.219 276.788 128.109C268.235 131.863 258.994 133.794 249.654 133.779C213.035 133.779 183.355 104.694 183.355 68.81C183.342 56.6943 186.784 44.826 193.277 34.5975C195.762 30.6775 192.779 25.2525 188.229 26.4075C153.15 35.3587 127.25 66.6138 127.25 103.793C127.25 147.954 163.781 183.75 208.853 183.75C242.978 183.75 272.203 163.231 284.383 134.094Z" fill="#737F94"/>
<path d="M237.596 27.1512C232.959 24.0537 227.429 29.5837 230.518 34.2212L236.03 42.49C238.266 45.8427 239.46 49.7825 239.46 53.8125C239.46 57.8425 238.266 61.7823 236.03 65.135L230.518 73.4037C227.429 78.0412 232.968 83.5712 237.605 80.4737L245.865 74.9613C249.218 72.725 253.157 71.5317 257.188 71.5317C261.218 71.5317 265.157 72.725 268.51 74.9613L276.779 80.4737C281.416 83.5712 286.946 78.0412 283.849 73.4037L278.336 65.135C276.1 61.7823 274.907 57.8425 274.907 53.8125C274.907 49.7825 276.1 45.8427 278.336 42.49L283.849 34.2212C286.946 29.5837 281.416 24.0537 276.77 27.1512L268.51 32.6637C265.157 34.9 261.218 36.0933 257.188 36.0933C253.157 36.0933 249.218 34.9 245.865 32.6637L237.596 27.1512V27.1512Z" fill="#737F94"/>
<path d="M178.75 271.6C175.947 270.199 172.536 271.335 171.134 274.139L159.782 296.845C157.882 300.645 160.683 305.061 164.855 305.061C166.937 305.061 168.942 303.911 169.936 301.922L181.289 279.216C182.691 276.412 181.554 273.002 178.75 271.6Z" fill="#3D409A"/>
<path d="M229.838 271.6C227.034 270.199 223.624 271.335 222.222 274.139L210.869 296.845C208.969 300.645 211.77 305.061 215.942 305.061C218.024 305.061 220.029 303.911 221.024 301.922L232.376 279.216C233.778 276.412 232.642 273.002 229.838 271.6Z" fill="#3D409A"/>
<path d="M127.663 271.6C124.859 270.199 121.449 271.335 120.047 274.139L108.694 296.845C106.794 300.645 109.596 305.061 113.767 305.061C115.849 305.061 117.854 303.911 118.849 301.922L130.201 279.216C131.603 276.412 130.467 273.002 127.663 271.6Z" fill="#3D409A"/>
<path d="M76.5753 271.6C73.7719 270.199 70.3614 271.335 68.9597 274.139L57.6069 296.845C55.7068 300.645 58.5081 305.061 62.6798 305.061C64.762 305.061 66.7668 303.911 67.7613 301.922L79.114 279.216C80.5158 276.412 79.3794 273.002 76.5753 271.6Z" fill="#3D409A"/>
<path d="M144.692 291.468C141.888 290.066 138.478 291.202 137.076 294.006L125.723 316.712C123.823 320.512 126.625 324.928 130.796 324.928C132.879 324.928 134.883 323.778 135.878 321.789L147.231 299.084C148.632 296.28 147.496 292.87 144.692 291.468Z" fill="#3D409A"/>
<path d="M195.779 291.468C192.975 290.066 189.565 291.202 188.164 294.006L176.811 316.712C174.911 320.512 177.712 324.928 181.884 324.928C183.966 324.928 185.971 323.778 186.965 321.789L198.318 299.084C199.72 296.28 198.583 292.87 195.779 291.468Z" fill="#3D409A"/>
<path d="M93.6044 291.468C90.8006 290.066 87.3905 291.202 85.9888 294.006L74.6361 316.712C72.7359 320.512 75.5372 324.928 79.709 324.928C81.7911 324.928 83.796 323.778 84.7904 321.789L96.1431 299.084C97.5449 296.28 96.4085 292.87 93.6044 291.468Z" fill="#3D409A"/>
<path d="M260.959 150.641C256.924 124.819 234.538 105 207.6 105C197.466 105 187.728 107.804 179.282 113.033C166.432 91.4382 143.299 78 117.6 78C77.8998 78 45.6 110.3 45.6 150C45.6 150.246 45.6 150.501 45.609 150.747C20.094 155.045 0 177.29 0 204C0 233.777 24.8226 258 54.6 258H252.6C282.378 258 307.2 233.777 307.2 204C307.2 177.062 286.781 154.676 260.959 150.641Z" fill="#6166F7"/>
<path d="M260.959 150.641C256.924 124.819 234.538 105 207.6 105C197.466 105 187.728 107.804 179.282 113.033C166.432 91.4382 143.299 78 117.6 78C77.8998 78 45.6 110.3 45.6 150C45.6 150.246 45.6 150.501 45.609 150.747C20.094 155.045 0 177.29 0 204C0 233.777 24.8226 258 54.6 258H252.6C282.378 258 307.2 233.777 307.2 204C307.2 177.062 286.781 154.676 260.959 150.641Z" fill="#6166F7"/>
</svg>
