<svg width="508" height="495" viewBox="0 0 508 495" fill="none" xmlns="http://www.w3.org/2000/svg">
<path d="M230 384C311.186 384 377 318.186 377 237C377 155.814 311.186 90 230 90C148.814 90 83 155.814 83 237C83 318.186 148.814 384 230 384Z" fill="#FFC985"/>
<path d="M229.826 85.5468C246.082 85.566 262.304 87.0565 278.293 90C278.509 86.8924 278.652 83.7278 278.652 80.5461C278.646 36.065 229.826 0 229.826 0C229.826 0 181 36.065 181 80.5461C181 83.7506 181.148 86.8924 181.365 90C197.352 87.0565 213.571 85.566 229.826 85.5468Z" fill="#FEA832"/>
<path d="M229.823 388.448C246.081 388.428 262.304 386.94 278.293 384C278.51 387.102 278.653 390.244 278.653 393.449C278.653 437.927 229.829 474 229.829 474C229.829 474 181 437.938 181 393.449C181 390.244 181.148 387.102 181.365 384C197.351 386.938 213.57 388.428 229.823 388.448Z" fill="#FEA832"/>
<path d="M339.981 128.019C350.404 138.472 359.862 149.845 368.24 162C370.379 160.146 372.486 158.22 374.542 156.164C403.112 127.594 394.914 73.0859 394.914 73.0859C394.914 73.0859 340.406 64.9039 311.836 93.458C309.765 95.5293 307.854 97.6007 306 99.7601C318.155 108.138 329.528 117.596 339.981 128.019Z" fill="#FEA832"/>
<path d="M120.02 343.98C130.471 354.405 141.844 363.863 154 372.237C152.146 374.376 150.22 376.483 148.164 378.539C119.596 407.107 65.0898 398.91 65.0898 398.91C65.0898 398.91 56.8927 344.404 85.461 315.836C87.5322 313.765 89.6035 311.854 91.7629 310C100.139 322.155 109.597 333.527 120.02 343.98Z" fill="#FEA832"/>
<path d="M78.8432 235.995C78.8615 250.977 80.2335 265.928 82.9422 280.664C80.0834 280.863 77.1616 281 74.2344 281C33.2389 280.979 0 235.995 0 235.995C0 235.995 33.2389 191 74.2344 191C77.1878 191 80.0834 191.131 82.9422 191.331C80.234 206.065 78.8621 221.014 78.8432 235.995Z" fill="#FDAC47"/>
<path d="M120.023 128.019C109.6 138.472 100.142 149.845 91.7641 162C89.6254 160.146 87.5177 158.22 85.4619 156.164C56.8923 127.594 65.0898 73.0859 65.0898 73.0859C65.0898 73.0859 119.598 64.9039 148.168 93.458C150.239 95.5293 152.15 97.6007 154.004 99.7601C141.849 108.136 130.476 117.595 120.023 128.019Z" fill="#FEA832"/>
<rect x="360" y="45" width="81" height="423" fill="#6166F7"/>
<circle cx="401" cy="388" r="86" fill="#6166F7"/>
<path d="M385.053 104.219H388.326H413.78H417.053V107.492V324.037L418.277 324.366C418.28 324.367 418.285 324.368 418.288 324.369L385.053 104.219ZM385.053 104.219L384.67 327.529C356.842 334.93 337.409 360.187 337.409 388.951C337.409 424.043 365.957 452.591 401.049 452.591C436.149 452.591 464.698 424.043 464.698 388.951C464.698 360.197 445.274 334.93 417.436 327.529L418.288 324.369L385.053 104.219ZM385.053 104.219V107.492V104.219ZM385.053 104.219V107.492V104.219ZM418.288 324.369C447.553 332.154 467.971 358.715 467.971 388.951C467.971 425.851 437.957 455.864 401.049 455.864C364.149 455.864 334.136 425.85 334.136 388.951C334.136 358.702 354.568 332.149 383.827 324.367L418.288 324.369ZM385.053 107.492V324.04V107.492ZM385.053 107.492V324.04V107.492ZM385.053 324.04L383.829 324.366L385.053 324.04ZM435.75 320.524H435.751C461.727 333.716 477.841 359.936 477.841 388.951C477.841 431.291 443.387 465.745 401.049 465.745C358.709 465.745 324.255 431.291 324.255 388.951C324.255 359.946 340.369 333.726 366.346 320.524L371.736 317.785L373.527 316.875V314.867V76.7867C373.527 61.6062 385.877 49.2649 401.049 49.2649C416.22 49.2649 428.569 61.6062 428.569 76.7867V314.867V316.875L430.36 317.785L435.75 320.524ZM401.008 347.248V347.249C402.146 352.297 398.945 357.376 393.872 358.544C380.112 361.654 370.173 374.138 370.173 388.242C370.173 393.44 365.933 397.681 360.735 397.681C355.536 397.681 351.296 393.44 351.296 388.242C351.296 365.016 367.088 345.244 389.719 340.123L389.725 340.122C394.833 338.956 399.881 342.241 401.008 347.248ZM401.049 492C457.873 492 504.096 445.776 504.096 388.951C504.096 352.755 485.413 319.792 454.825 301.117V76.7769C454.825 47.1209 430.705 23 401.049 23C371.393 23 347.272 47.1209 347.272 76.7769V301.118C316.684 319.811 298 352.764 298 388.951C298 445.776 344.224 492 401.049 492Z" fill="#CECFFF" stroke="#6166F7" stroke-width="6"/>
<path d="M414 100H388V327H414V100Z" fill="#D4D5FF" stroke="#6066F6"/>
<rect x="373" y="220" width="9" height="35" fill="#6166F7"/>
</svg>
