<svg width="554" height="511" viewBox="0 0 554 511" fill="none" xmlns="http://www.w3.org/2000/svg">
<rect width="554" height="511" fill="#6166F7"/>
<g clip-path="url(#clip0)">
<path d="M249 403C330.186 403 396 337.186 396 256C396 174.814 330.186 109 249 109C167.814 109 102 174.814 102 256C102 337.186 167.814 403 249 403Z" fill="#FFC985"/>
<path d="M248.826 104.547C265.082 104.566 281.304 106.056 297.293 109C297.509 105.892 297.652 102.728 297.652 99.5461C297.646 55.065 248.826 19 248.826 19C248.826 19 200 55.065 200 99.5461C200 102.751 200.148 105.892 200.365 109C216.352 106.056 232.571 104.566 248.826 104.547Z" fill="#FEA832"/>
<path d="M248.823 407.448C265.081 407.428 281.304 405.94 297.293 403C297.51 406.102 297.653 409.244 297.653 412.449C297.653 456.927 248.829 493 248.829 493C248.829 493 200 456.938 200 412.449C200 409.244 200.148 406.102 200.365 403C216.351 405.938 232.57 407.428 248.823 407.448Z" fill="#FEA832"/>
<path d="M358.981 147.019C369.404 157.472 378.862 168.845 387.24 181C389.379 179.146 391.486 177.22 393.542 175.164C422.112 146.594 413.914 92.0859 413.914 92.0859C413.914 92.0859 359.406 83.9039 330.836 112.458C328.765 114.529 326.854 116.601 325 118.76C337.155 127.138 348.528 136.596 358.981 147.019Z" fill="#FEA832"/>
<path d="M139.02 362.98C149.471 373.405 160.844 382.863 173 391.237C171.146 393.376 169.22 395.483 167.164 397.539C138.596 426.107 84.0898 417.91 84.0898 417.91C84.0898 417.91 75.8927 363.404 104.461 334.836C106.532 332.765 108.604 330.854 110.763 329C119.139 341.155 128.597 352.527 139.02 362.98Z" fill="#FEA832"/>
<path d="M97.8432 254.995C97.8615 269.977 99.2335 284.928 101.942 299.664C99.0834 299.863 96.1616 300 93.2344 300C52.2389 299.979 19 254.995 19 254.995C19 254.995 52.2389 210 93.2344 210C96.1878 210 99.0834 210.131 101.942 210.331C99.234 225.065 97.8621 240.014 97.8432 254.995Z" fill="#FDAC47"/>
<path d="M139.023 147.019C128.6 157.472 119.142 168.845 110.764 181C108.625 179.146 106.518 177.22 104.462 175.164C75.8923 146.594 84.0898 92.0859 84.0898 92.0859C84.0898 92.0859 138.598 83.9039 167.168 112.458C169.239 114.529 171.15 116.601 173.004 118.76C160.849 127.136 149.476 136.595 139.023 147.019Z" fill="#FEA832"/>
<rect x="379" y="64" width="81" height="131" fill="#6166F7"/>
<path d="M404.053 123.219H407.326H432.78H436.053V126.492V343.037L437.277 343.366C437.28 343.367 437.285 343.368 437.288 343.369L404.053 123.219ZM404.053 123.219L403.67 346.529C375.842 353.93 356.409 379.187 356.409 407.951C356.409 443.043 384.957 471.591 420.049 471.591C455.149 471.591 483.698 443.043 483.698 407.951C483.698 379.197 464.274 353.93 436.436 346.529L437.288 343.369L404.053 123.219ZM404.053 123.219V126.492V123.219ZM404.053 123.219V126.492V123.219ZM437.288 343.369C466.553 351.154 486.971 377.715 486.971 407.951C486.971 444.851 456.957 474.864 420.049 474.864C383.149 474.864 353.136 444.85 353.136 407.951C353.136 377.702 373.568 351.149 402.827 343.367L437.288 343.369ZM404.053 126.492V343.04V126.492ZM404.053 126.492V343.04V126.492ZM404.053 343.04L402.829 343.366L404.053 343.04ZM454.75 339.524H454.751C480.727 352.716 496.841 378.936 496.841 407.951C496.841 450.291 462.387 484.745 420.049 484.745C377.709 484.745 343.255 450.291 343.255 407.951C343.255 378.946 359.369 352.726 385.346 339.524L390.736 336.785L392.527 335.875V333.867V95.7867C392.527 80.6062 404.877 68.2649 420.049 68.2649C435.22 68.2649 447.569 80.6062 447.569 95.7867V333.867V335.875L449.36 336.785L454.75 339.524ZM420.008 366.248V366.249C421.146 371.297 417.945 376.376 412.872 377.544C399.112 380.654 389.173 393.138 389.173 407.242C389.173 412.44 384.933 416.681 379.735 416.681C374.536 416.681 370.296 412.44 370.296 407.242C370.296 384.016 386.088 364.244 408.719 359.123L408.725 359.122C413.833 357.956 418.881 361.241 420.008 366.248ZM420.049 511C476.873 511 523.096 464.776 523.096 407.951C523.096 371.755 504.413 338.792 473.825 320.117V95.7769C473.825 66.1209 449.705 42 420.049 42C390.393 42 366.272 66.1209 366.272 95.7769V320.118C335.684 338.811 317 371.764 317 407.951C317 464.776 363.224 511 420.049 511Z" fill="#CECFFF" stroke="#6166F7" stroke-width="6"/>
<path d="M433 119H407V346H433V119Z" fill="#D4D5FF" stroke="#6066F6"/>
<rect x="392" y="239" width="9" height="35" fill="#6166F7"/>
</g>
<defs>
<clipPath id="clip0">
<rect width="554" height="511" fill="white"/>
</clipPath>
</defs>
</svg>
