<svg width="554" height="511" viewBox="0 0 554 511" fill="none" xmlns="http://www.w3.org/2000/svg">
<rect width="554" height="511" fill="#6166F7"/>
<rect x="443.5" y="154.5" width="26" height="203" fill="#D4D5FF" stroke="#6066F6"/>
<path d="M249.5 430C349.187 430 430 349.187 430 249.5C430 149.813 349.187 69 249.5 69C149.813 69 69 149.813 69 249.5C69 349.187 149.813 430 249.5 430Z" fill="#FFC985"/>
<path d="M249 61C260.404 61.0135 271.784 62.0591 283 64.124C283.152 61.944 283.252 59.724 283.252 57.492C283.248 26.288 249 0.988007 249 0.988007C249 0.988007 214.748 26.288 214.748 57.492C214.748 59.74 214.852 61.944 215.004 64.124C226.219 62.0591 237.597 61.0135 249 61Z" fill="#FEA832"/>
<path d="M249 438.976C260.404 438.962 271.784 437.918 283 435.856C283.152 438.032 283.252 440.236 283.252 442.484C283.252 473.684 249.004 498.988 249.004 498.988C249.004 498.988 214.752 473.692 214.752 442.484C214.752 440.236 214.856 438.032 215.008 435.856C226.222 437.917 237.599 438.962 249 438.976Z" fill="#FEA832"/>
<path d="M382.636 116.352C390.687 124.426 397.993 133.211 404.464 142.6C406.116 141.168 407.744 139.68 409.332 138.092C431.4 116.024 425.068 73.92 425.068 73.92C425.068 73.92 382.964 67.6 360.896 89.656C359.296 91.256 357.82 92.856 356.388 94.524C365.777 100.995 374.562 108.301 382.636 116.352Z" fill="#FEA832"/>
<path d="M115.364 383.624C123.437 391.677 132.222 398.983 141.612 405.452C140.18 407.104 138.692 408.732 137.104 410.32C115.036 432.388 72.932 426.056 72.932 426.056C72.932 426.056 66.6 383.952 88.668 361.884C90.268 360.284 91.868 358.808 93.536 357.376C100.006 366.765 107.312 375.55 115.364 383.624Z" fill="#FEA832"/>
<path d="M60.012 250C60.0259 261.404 61.0702 272.784 63.132 284C60.956 284.152 58.732 284.256 56.504 284.256C25.3 284.24 0 250 0 250C0 250 25.3 215.752 56.504 215.752C58.752 215.752 60.956 215.852 63.132 216.004C61.0706 227.219 60.0264 238.597 60.012 250Z" fill="#FDAC47"/>
<path d="M115.364 116.352C107.313 124.426 100.007 133.211 93.536 142.6C91.884 141.168 90.256 139.68 88.668 138.092C66.6 116.024 72.932 73.92 72.932 73.92C72.932 73.92 115.036 67.6 137.104 89.656C138.704 91.256 140.18 92.856 141.612 94.524C132.223 100.994 123.438 108.3 115.364 116.352Z" fill="#FEA832"/>
<path d="M441.785 152.438H444.785H468.113H471.113V155.438V353.903L472.235 354.205C472.238 354.206 472.242 354.207 472.245 354.208M441.785 152.438L441.434 357.104C415.929 363.887 398.119 387.035 398.119 413.398C398.119 445.56 424.283 471.724 456.445 471.724C488.615 471.724 514.78 445.56 514.78 413.398C514.78 387.044 496.978 363.887 471.464 357.104L472.245 354.208M441.785 152.438V155.438M441.785 152.438V155.438M472.245 354.208C499.067 361.343 517.78 385.686 517.78 413.398C517.78 447.217 490.272 474.724 456.445 474.724C422.626 474.724 395.119 447.216 395.119 413.398C395.119 385.674 413.845 361.338 440.661 354.206L472.245 354.208ZM441.785 155.438V353.906M441.785 155.438V353.906M441.785 353.906L440.663 354.205L441.785 353.906ZM488.249 350.684L488.25 350.684C512.057 362.774 526.826 386.805 526.826 413.398C526.826 452.203 495.249 483.78 456.445 483.78C417.64 483.78 386.063 452.203 386.063 413.398C386.063 386.814 400.832 362.783 424.64 350.684L429.58 348.173L431.221 347.339V345.499V127.296C431.221 113.383 442.54 102.072 456.445 102.072C470.35 102.072 481.668 113.383 481.668 127.296V345.499V347.339L483.309 348.173L488.249 350.684ZM456.408 375.176L456.408 375.177C457.451 379.804 454.517 384.459 449.868 385.529C437.256 388.38 428.147 399.821 428.147 412.748C428.147 417.512 424.261 421.399 419.497 421.399C414.732 421.399 410.846 417.512 410.846 412.748C410.846 391.461 425.32 373.34 446.061 368.646L446.067 368.645C450.748 367.577 455.375 370.587 456.408 375.176ZM456.445 507.843C508.525 507.843 550.889 465.478 550.889 413.398C550.889 380.224 533.766 350.013 505.732 332.897V127.287C505.732 100.107 483.625 78 456.445 78C429.265 78 407.158 100.107 407.158 127.287V332.898C379.124 350.03 362 380.232 362 413.398C362 465.478 404.365 507.843 456.445 507.843Z" fill="#CECFFF" stroke="#6166F7" stroke-width="6"/>
</svg>
