<svg width="373" height="227" viewBox="0 0 373 227" fill="none" xmlns="http://www.w3.org/2000/svg">
<path d="M325.959 72.6414C321.924 46.8192 299.538 27 272.6 27C262.466 27 252.728 29.8038 244.282 35.0334C231.432 13.4382 208.299 0 182.6 0C142.9 0 110.6 32.2998 110.6 72C110.6 72.246 110.6 72.501 110.609 72.747C85.094 77.0448 65 99.2898 65 126C65 155.777 89.8226 180 119.6 180H317.6C347.378 180 372.2 155.777 372.2 126C372.2 99.0618 351.781 76.6758 325.959 72.6414Z" fill="#3D409A"/>
<path d="M260.959 119.641C256.924 93.8192 234.538 74 207.6 74C197.466 74 187.728 76.8038 179.282 82.0334C166.432 60.4382 143.299 47 117.6 47C77.8998 47 45.6 79.2998 45.6 119C45.6 119.246 45.6 119.501 45.609 119.747C20.094 124.045 0 146.29 0 173C0 202.777 24.8226 227 54.6 227H252.6C282.378 227 307.2 202.777 307.2 173C307.2 146.062 286.781 123.676 260.959 119.641Z" fill="#6166F7"/>
</svg>
