<svg width="311" height="325" viewBox="0 0 311 325" fill="none" xmlns="http://www.w3.org/2000/svg">
<path d="M178.75 271.6C175.947 270.199 172.536 271.335 171.134 274.139L159.782 296.845C157.882 300.645 160.683 305.061 164.855 305.061C166.937 305.061 168.942 303.911 169.936 301.922L181.289 279.216C182.691 276.412 181.554 273.002 178.75 271.6V271.6Z" fill="#3D409A"/>
<path d="M229.838 271.6C227.034 270.199 223.624 271.335 222.222 274.139L210.869 296.845C208.969 300.645 211.77 305.061 215.942 305.061C218.024 305.061 220.029 303.911 221.024 301.922L232.376 279.216C233.778 276.412 232.642 273.002 229.838 271.6V271.6Z" fill="#3D409A"/>
<path d="M127.663 271.6C124.859 270.199 121.449 271.335 120.047 274.139L108.694 296.845C106.794 300.645 109.596 305.061 113.767 305.061C115.849 305.061 117.854 303.911 118.849 301.922L130.201 279.216C131.603 276.412 130.467 273.002 127.663 271.6Z" fill="#3D409A"/>
<path d="M76.5753 271.6C73.7719 270.199 70.3614 271.335 68.9597 274.139L57.6069 296.845C55.7068 300.645 58.5081 305.061 62.6798 305.061C64.762 305.061 66.7668 303.911 67.7613 301.922L79.114 279.216C80.5158 276.412 79.3794 273.002 76.5753 271.6V271.6Z" fill="#3D409A"/>
<path d="M144.692 291.468C141.888 290.066 138.478 291.202 137.076 294.006L125.723 316.712C123.823 320.512 126.625 324.928 130.796 324.928C132.879 324.928 134.883 323.778 135.878 321.789L147.231 299.084C148.632 296.28 147.496 292.87 144.692 291.468V291.468Z" fill="#3D409A"/>
<path d="M195.779 291.468C192.975 290.066 189.565 291.202 188.164 294.006L176.811 316.712C174.911 320.512 177.712 324.928 181.884 324.928C183.966 324.928 185.971 323.778 186.965 321.789L198.318 299.084C199.72 296.28 198.583 292.87 195.779 291.468V291.468Z" fill="#3D409A"/>
<path d="M93.6044 291.468C90.8006 290.066 87.3905 291.202 85.9888 294.006L74.6361 316.712C72.7359 320.512 75.5372 324.928 79.709 324.928C81.7911 324.928 83.796 323.778 84.7904 321.789L96.1431 299.084C97.5449 296.28 96.4085 292.87 93.6044 291.468V291.468Z" fill="#3D409A"/>
<path d="M260.959 150.641C256.924 124.819 234.538 105 207.6 105C197.466 105 187.728 107.804 179.282 113.033C166.432 91.4382 143.299 78 117.6 78C77.8998 78 45.6 110.3 45.6 150C45.6 150.246 45.6 150.501 45.609 150.747C20.094 155.045 0 177.29 0 204C0 233.777 24.8226 258 54.6 258H252.6C282.378 258 307.2 233.777 307.2 204C307.2 177.062 286.781 154.676 260.959 150.641Z" fill="#6166F7"/>
<path d="M234.613 51.7127C237.238 60.1126 239.075 69.0376 239.338 78.2254C240.912 114.713 216.238 147 184.213 161.176C191.038 163.801 198.388 165.376 206 165.376C239.338 165.376 266.375 138.338 266.375 105.001C266.375 81.9 253.513 61.9499 234.613 51.7127Z" fill="#FFAD47"/>
<path d="M206 0C201.012 0 197.075 3.93737 197.075 8.92501V23.6251C197.075 28.6128 201.012 32.5501 206 32.5501C210.988 32.5501 214.925 28.6128 214.925 23.6251V8.92501C214.925 3.93737 210.988 0 206 0Z" fill="#FFAD47"/>
<path d="M206 177.45C201.012 177.45 197.075 181.388 197.075 186.375V201.075C197.075 206.063 201.012 210 206 210C210.988 210 214.925 206.063 214.925 201.075V186.375C214.925 181.388 210.988 177.45 206 177.45Z" fill="#FFAD47"/>
<path d="M311 105C311 100.012 307.063 96.075 302.075 96.075H287.375C282.387 96.075 278.45 100.012 278.45 105C278.45 109.988 282.387 113.925 287.375 113.925H302.075C307.063 113.925 311 109.988 311 105Z" fill="#FFAD47"/>
<path d="M133.55 105C133.55 100.012 129.613 96.075 124.625 96.075H109.925C104.937 96.075 101 100.012 101 105C101 109.988 104.937 113.925 109.925 113.925H124.625C129.612 113.925 133.55 109.988 133.55 105Z" fill="#FFAD47"/>
<path d="M280.288 30.7124C276.875 27.2997 271.1 27.2997 267.688 30.7124L257.188 41.2124C253.775 44.625 253.775 50.3997 257.188 53.8124C260.6 57.2251 266.375 57.2251 269.788 53.8124L280.288 43.3124C283.7 39.9002 283.7 34.1251 280.288 30.7124Z" fill="#FFAD47"/>
<path d="M154.812 156.188C151.4 152.775 145.625 152.775 142.212 156.188L131.712 166.688C128.3 170.1 128.3 175.875 131.712 179.288C135.125 182.7 140.9 182.7 144.312 179.288L154.812 168.788C158.225 165.375 158.225 159.863 154.812 156.188Z" fill="#FFAD47"/>
<path d="M280.288 179.288C283.7 175.875 283.7 170.1 280.288 166.688L269.788 156.188C266.375 152.775 260.6 152.775 257.188 156.188C253.775 159.6 253.775 165.375 257.188 168.788L267.688 179.288C271.1 182.7 276.875 182.7 280.288 179.288Z" fill="#FFAD47"/>
<path d="M154.812 53.8124C158.225 50.3997 158.225 44.625 154.812 41.2124L144.312 30.7124C140.9 27.2997 135.125 27.2997 131.712 30.7124C128.3 34.1251 128.3 39.8998 131.712 43.3124L142.212 53.8124C145.625 57.2251 151.137 57.2251 154.812 53.8124Z" fill="#FFAD47"/>
<path d="M206 165.375C239.344 165.375 266.375 138.344 266.375 105C266.375 71.6558 239.344 44.6251 206 44.6251C172.656 44.6251 145.625 71.6558 145.625 105C145.625 138.344 172.656 165.375 206 165.375Z" fill="#FFAD47"/>
<path d="M260.959 150.641C256.924 124.819 234.538 105 207.6 105C197.466 105 187.728 107.804 179.282 113.033C166.432 91.4382 143.299 78 117.6 78C77.8998 78 45.6 110.3 45.6 150C45.6 150.246 45.6 150.501 45.609 150.747C20.094 155.045 0 177.29 0 204C0 233.777 24.8226 258 54.6 258H252.6C282.378 258 307.2 233.777 307.2 204C307.2 177.062 286.781 154.676 260.959 150.641Z" fill="#6166F7"/>
</svg>
