<svg width="373" height="301" viewBox="0 0 373 301" fill="none" xmlns="http://www.w3.org/2000/svg">
<path d="M325.959 72.6414C321.924 46.8192 299.538 27 272.6 27C262.466 27 252.728 29.8038 244.282 35.0334C231.432 13.4382 208.299 0 182.6 0C142.9 0 110.6 32.2998 110.6 72C110.6 72.246 110.6 72.501 110.609 72.747C85.094 77.0448 65 99.2898 65 126C65 155.777 89.8226 180 119.6 180H317.6C347.378 180 372.2 155.777 372.2 126C372.2 99.0618 351.781 76.6758 325.959 72.6414Z" fill="#3D409A"/>
<path d="M260.959 119.641C256.924 93.8192 234.538 74 207.6 74C197.466 74 187.728 76.8038 179.282 82.0334C166.432 60.4382 143.299 47 117.6 47C77.8998 47 45.6 79.2998 45.6 119C45.6 119.246 45.6 119.501 45.609 119.747C20.094 124.045 0 146.29 0 173C0 202.777 24.8226 227 54.6 227H252.6C282.378 227 307.2 202.777 307.2 173C307.2 146.062 286.781 123.676 260.959 119.641Z" fill="#6166F7"/>
<path d="M164.777 228.069C164.474 227.418 163.82 227 163.101 227H141.178L162.814 192.84C163.175 192.27 163.197 191.549 162.871 190.958C162.546 190.366 161.924 190 161.251 190H131.651C130.95 190 130.309 190.396 129.995 191.023L102.245 246.523C101.958 247.095 101.99 247.775 102.326 248.321C102.665 248.867 103.259 249.2 103.901 249.2H122.924L102.195 298.432C101.842 299.274 102.156 300.251 102.935 300.728C103.235 300.911 103.568 301 103.899 301C104.43 301 104.953 300.772 105.316 300.343L164.516 230.043C164.98 229.492 165.08 228.722 164.777 228.069Z" fill="#FFAD47"/>
</svg>
