<svg width="512" height="430" viewBox="0 0 512 430" fill="none" xmlns="http://www.w3.org/2000/svg">
<path d="M434.931 121.069C428.207 78.032 390.897 45 346 45C329.11 45 312.88 49.673 298.803 58.389C277.387 22.397 238.832 0 196 0C129.833 0 76 53.833 76 120C76 120.41 76 120.835 76.015 121.245C33.49 128.408 0 165.483 0 210C0 259.629 41.371 300 91 300H421C470.629 300 512 259.629 512 210C512 165.103 477.968 127.793 434.931 121.069Z" fill="#6166F7"/>
<mask id="path-2-outside-1" maskUnits="userSpaceOnUse" x="164" y="223" width="184" height="207" fill="black">
<rect fill="white" x="164" y="223" width="184" height="207"/>
<path d="M337.296 366.402L326.407 360.114L335.708 356.516C336.894 356.057 337.79 355.178 338.3 354.116C339.418 352.784 339.774 350.892 339.059 349.177C338.038 346.726 335.225 345.569 332.773 346.589L315.468 353.799L306.201 348.448L315.503 344.85C317.979 343.892 319.209 341.108 318.252 338.632C317.294 336.157 314.512 334.927 312.034 335.883L295.511 342.277L285.765 336.651L301.922 330.728C303.814 330.033 305.072 328.233 305.074 326.218C305.076 324.202 303.82 322.401 301.929 321.704L283.014 314.735L293.764 308.527L325.077 321.173C325.667 321.412 326.276 321.524 326.876 321.524C328.778 321.524 330.579 320.388 331.335 318.516C332.329 316.055 331.139 313.253 328.677 312.259L304.331 302.427L315.099 296.21L332.342 302.882C332.913 303.103 333.499 303.207 334.075 303.207C336.003 303.207 337.823 302.039 338.56 300.133C339.518 297.657 338.287 294.873 335.811 293.915L325.79 290.038L337.296 283.395C339.595 282.068 340.383 279.128 339.055 276.828C337.729 274.529 334.787 273.742 332.489 275.069L321.139 281.621L322.603 270.314C322.944 267.681 321.087 265.27 318.454 264.929C315.821 264.585 313.409 266.446 313.069 269.079L310.66 287.671L299.549 294.086L302.871 267.47C303.2 264.836 301.331 262.434 298.696 262.105C296.066 261.778 293.66 263.645 293.331 266.28L289.108 300.115L280.249 305.229L283.073 288.988C283.419 287.002 282.489 285.012 280.744 284.003C278.999 282.994 276.705 283.18 275.155 284.47L260.624 296.479V284.042L275.651 272.642C277.76 271.03 278.217 268.013 276.605 265.903C274.993 263.794 271.896 263.39 269.787 265.002L260.624 271.942V260.71L275.651 249.31C277.76 247.698 278.217 244.681 276.605 242.572C274.993 240.463 271.896 240.058 269.787 241.67L260.624 248.61V235.807C260.624 233.152 258.472 231 255.817 231C253.161 231 251.009 233.152 251.009 235.807V248.756L242.77 242.034C240.703 240.367 237.729 240.695 236.065 242.763C234.399 244.831 234.645 247.857 236.713 249.522L251.009 261.1V272.087L242.77 265.366C240.703 263.699 237.729 264.026 236.065 266.095C234.399 268.162 234.645 271.188 236.713 272.853L251.009 284.433V295.9L237.396 284.442C235.848 283.149 233.713 282.96 231.967 283.967C230.221 284.974 229.315 286.962 229.657 288.948L232.602 305.966L224.142 301.076L219.922 267.242C219.593 264.607 217.185 262.745 214.559 263.067C211.924 263.396 210.056 265.798 210.385 268.432L213.707 295.048L202.595 288.632L200.185 270.04C199.845 267.408 197.437 265.549 194.801 265.891C192.169 266.232 190.311 268.643 190.652 271.275L192.116 282.582L180.212 275.709C177.911 274.381 174.972 275.168 173.645 277.468C172.318 279.767 173.106 282.707 175.405 284.035L187.468 290.999L177.446 294.877C174.97 295.835 173.739 298.618 174.697 301.094C175.434 303.001 177.253 304.168 179.181 304.168C179.757 304.168 180.344 304.064 180.914 303.843L198.158 297.172L208.925 303.388L184.579 313.22C182.117 314.214 180.928 317.016 181.923 319.478C182.679 321.35 184.479 322.486 186.382 322.486C186.981 322.486 187.59 322.373 188.18 322.135L219.493 309.489L228.973 314.962L210.78 321.632C208.888 322.326 207.629 324.127 207.627 326.142C207.626 328.157 208.882 329.959 210.773 330.656L226.3 336.376L215.856 342.406L200.216 335.889C197.765 334.866 194.951 336.026 193.929 338.477C192.908 340.928 194.067 343.743 196.517 344.764L205.378 348.455L195.65 354.072L180.01 347.556C177.56 346.533 174.745 347.693 173.724 350.144C172.702 352.595 173.861 355.409 176.312 356.43L185.172 360.122L175.404 365.761C173.105 367.089 172.317 370.029 173.645 372.328C174.535 373.87 176.151 374.732 177.812 374.732C178.627 374.732 179.455 374.524 180.211 374.087L192.084 367.233L190.148 379.669C189.739 382.293 191.535 384.75 194.159 385.158C194.409 385.197 194.658 385.216 194.904 385.216C197.233 385.216 199.278 383.521 199.648 381.147L202.774 361.059L212.29 355.567L210.353 368.003C209.945 370.626 211.741 373.083 214.364 373.492C214.615 373.531 214.864 373.549 215.109 373.549C217.438 373.549 219.484 371.854 219.853 369.481L222.98 349.394L233.071 343.568L229.627 363.37C229.282 365.356 230.211 367.346 231.956 368.355C233.7 369.363 235.781 369.177 237.332 367.887L251.009 356.412V365.779L224.273 386.758C222.181 388.393 221.863 391.414 223.498 393.505C225.133 395.598 228.075 395.967 230.166 394.333L251.009 377.98V390.409L236.482 402.196C234.414 403.861 234.141 406.887 235.807 408.954C237.472 411.021 240.418 411.347 242.486 409.683L251.009 402.753V417.193C251.009 419.848 253.161 422 255.817 422C258.472 422 260.624 419.848 260.624 417.193V403.304L269.555 410.048C270.426 410.713 271.505 411.035 272.523 411.035C273.971 411.035 275.427 410.384 276.373 409.147C277.985 407.037 277.488 404.02 275.379 402.408L260.623 391.205V378.373L281.884 394.38C282.751 395.037 283.824 395.354 284.834 395.354C286.289 395.354 287.752 394.697 288.697 393.447C290.3 391.33 289.789 388.315 287.671 386.714L260.623 366.317V355.925L275.091 367.918C275.976 368.657 277.125 369.035 278.226 369.035C279.051 369.035 279.906 368.824 280.653 368.393C282.4 367.387 283.346 365.398 283.003 363.412L279.709 344.26L290.252 350.344L292.759 369.688C293.072 372.111 295.141 373.878 297.521 373.878C297.726 373.878 297.935 373.865 298.145 373.837C300.777 373.497 302.635 371.086 302.294 368.453L300.733 356.395L310.291 361.913L311.223 367.903L312.967 381.354C313.28 383.776 315.348 385.543 317.727 385.543C317.933 385.543 318.142 385.531 318.352 385.503C320.807 385.185 322.586 383.067 322.538 380.648C322.699 380.031 322.739 379.373 322.635 378.704L320.982 368.086L332.489 374.729C333.247 375.167 334.073 375.374 334.888 375.374C336.549 375.374 338.165 374.512 339.055 372.97C340.383 370.669 339.595 367.729 337.296 366.402ZM286.33 326.203L274.917 330.387L265.409 324.898L272.179 320.989L286.33 326.203ZM271.254 300.227L269.241 311.492L260.624 316.437V308.988L271.254 300.227ZM241.273 300.205L251.009 308.424V316.707L243.289 312.219L241.273 300.205ZM226.37 326.156L239.821 321.226L246.182 324.898L237.134 330.122L226.37 326.156ZM241.235 352.13L243.759 337.305L251.009 333.088V343.903L241.235 352.13ZM271.214 352.154L260.624 343.398V333.359L268.722 338.004L271.214 352.154Z"/>
</mask>
<path d="M337.296 366.402L326.407 360.114L335.708 356.516C336.894 356.057 337.79 355.178 338.3 354.116C339.418 352.784 339.774 350.892 339.059 349.177C338.038 346.726 335.225 345.569 332.773 346.589L315.468 353.799L306.201 348.448L315.503 344.85C317.979 343.892 319.209 341.108 318.252 338.632C317.294 336.157 314.512 334.927 312.034 335.883L295.511 342.277L285.765 336.651L301.922 330.728C303.814 330.033 305.072 328.233 305.074 326.218C305.076 324.202 303.82 322.401 301.929 321.704L283.014 314.735L293.764 308.527L325.077 321.173C325.667 321.412 326.276 321.524 326.876 321.524C328.778 321.524 330.579 320.388 331.335 318.516C332.329 316.055 331.139 313.253 328.677 312.259L304.331 302.427L315.099 296.21L332.342 302.882C332.913 303.103 333.499 303.207 334.075 303.207C336.003 303.207 337.823 302.039 338.56 300.133C339.518 297.657 338.287 294.873 335.811 293.915L325.79 290.038L337.296 283.395C339.595 282.068 340.383 279.128 339.055 276.828C337.729 274.529 334.787 273.742 332.489 275.069L321.139 281.621L322.603 270.314C322.944 267.681 321.087 265.27 318.454 264.929C315.821 264.585 313.409 266.446 313.069 269.079L310.66 287.671L299.549 294.086L302.871 267.47C303.2 264.836 301.331 262.434 298.696 262.105C296.066 261.778 293.66 263.645 293.331 266.28L289.108 300.115L280.249 305.229L283.073 288.988C283.419 287.002 282.489 285.012 280.744 284.003C278.999 282.994 276.705 283.18 275.155 284.47L260.624 296.479V284.042L275.651 272.642C277.76 271.03 278.217 268.013 276.605 265.903C274.993 263.794 271.896 263.39 269.787 265.002L260.624 271.942V260.71L275.651 249.31C277.76 247.698 278.217 244.681 276.605 242.572C274.993 240.463 271.896 240.058 269.787 241.67L260.624 248.61V235.807C260.624 233.152 258.472 231 255.817 231C253.161 231 251.009 233.152 251.009 235.807V248.756L242.77 242.034C240.703 240.367 237.729 240.695 236.065 242.763C234.399 244.831 234.645 247.857 236.713 249.522L251.009 261.1V272.087L242.77 265.366C240.703 263.699 237.729 264.026 236.065 266.095C234.399 268.162 234.645 271.188 236.713 272.853L251.009 284.433V295.9L237.396 284.442C235.848 283.149 233.713 282.96 231.967 283.967C230.221 284.974 229.315 286.962 229.657 288.948L232.602 305.966L224.142 301.076L219.922 267.242C219.593 264.607 217.185 262.745 214.559 263.067C211.924 263.396 210.056 265.798 210.385 268.432L213.707 295.048L202.595 288.632L200.185 270.04C199.845 267.408 197.437 265.549 194.801 265.891C192.169 266.232 190.311 268.643 190.652 271.275L192.116 282.582L180.212 275.709C177.911 274.381 174.972 275.168 173.645 277.468C172.318 279.767 173.106 282.707 175.405 284.035L187.468 290.999L177.446 294.877C174.97 295.835 173.739 298.618 174.697 301.094C175.434 303.001 177.253 304.168 179.181 304.168C179.757 304.168 180.344 304.064 180.914 303.843L198.158 297.172L208.925 303.388L184.579 313.22C182.117 314.214 180.928 317.016 181.923 319.478C182.679 321.35 184.479 322.486 186.382 322.486C186.981 322.486 187.59 322.373 188.18 322.135L219.493 309.489L228.973 314.962L210.78 321.632C208.888 322.326 207.629 324.127 207.627 326.142C207.626 328.157 208.882 329.959 210.773 330.656L226.3 336.376L215.856 342.406L200.216 335.889C197.765 334.866 194.951 336.026 193.929 338.477C192.908 340.928 194.067 343.743 196.517 344.764L205.378 348.455L195.65 354.072L180.01 347.556C177.56 346.533 174.745 347.693 173.724 350.144C172.702 352.595 173.861 355.409 176.312 356.43L185.172 360.122L175.404 365.761C173.105 367.089 172.317 370.029 173.645 372.328C174.535 373.87 176.151 374.732 177.812 374.732C178.627 374.732 179.455 374.524 180.211 374.087L192.084 367.233L190.148 379.669C189.739 382.293 191.535 384.75 194.159 385.158C194.409 385.197 194.658 385.216 194.904 385.216C197.233 385.216 199.278 383.521 199.648 381.147L202.774 361.059L212.29 355.567L210.353 368.003C209.945 370.626 211.741 373.083 214.364 373.492C214.615 373.531 214.864 373.549 215.109 373.549C217.438 373.549 219.484 371.854 219.853 369.481L222.98 349.394L233.071 343.568L229.627 363.37C229.282 365.356 230.211 367.346 231.956 368.355C233.7 369.363 235.781 369.177 237.332 367.887L251.009 356.412V365.779L224.273 386.758C222.181 388.393 221.863 391.414 223.498 393.505C225.133 395.598 228.075 395.967 230.166 394.333L251.009 377.98V390.409L236.482 402.196C234.414 403.861 234.141 406.887 235.807 408.954C237.472 411.021 240.418 411.347 242.486 409.683L251.009 402.753V417.193C251.009 419.848 253.161 422 255.817 422C258.472 422 260.624 419.848 260.624 417.193V403.304L269.555 410.048C270.426 410.713 271.505 411.035 272.523 411.035C273.971 411.035 275.427 410.384 276.373 409.147C277.985 407.037 277.488 404.02 275.379 402.408L260.623 391.205V378.373L281.884 394.38C282.751 395.037 283.824 395.354 284.834 395.354C286.289 395.354 287.752 394.697 288.697 393.447C290.3 391.33 289.789 388.315 287.671 386.714L260.623 366.317V355.925L275.091 367.918C275.976 368.657 277.125 369.035 278.226 369.035C279.051 369.035 279.906 368.824 280.653 368.393C282.4 367.387 283.346 365.398 283.003 363.412L279.709 344.26L290.252 350.344L292.759 369.688C293.072 372.111 295.141 373.878 297.521 373.878C297.726 373.878 297.935 373.865 298.145 373.837C300.777 373.497 302.635 371.086 302.294 368.453L300.733 356.395L310.291 361.913L311.223 367.903L312.967 381.354C313.28 383.776 315.348 385.543 317.727 385.543C317.933 385.543 318.142 385.531 318.352 385.503C320.807 385.185 322.586 383.067 322.538 380.648C322.699 380.031 322.739 379.373 322.635 378.704L320.982 368.086L332.489 374.729C333.247 375.167 334.073 375.374 334.888 375.374C336.549 375.374 338.165 374.512 339.055 372.97C340.383 370.669 339.595 367.729 337.296 366.402ZM286.33 326.203L274.917 330.387L265.409 324.898L272.179 320.989L286.33 326.203ZM271.254 300.227L269.241 311.492L260.624 316.437V308.988L271.254 300.227ZM241.273 300.205L251.009 308.424V316.707L243.289 312.219L241.273 300.205ZM226.37 326.156L239.821 321.226L246.182 324.898L237.134 330.122L226.37 326.156ZM241.235 352.13L243.759 337.305L251.009 333.088V343.903L241.235 352.13ZM271.214 352.154L260.624 343.398V333.359L268.722 338.004L271.214 352.154Z" fill="#6166F7"/>
<path d="M337.296 366.402L326.407 360.114L335.708 356.516C336.894 356.057 337.79 355.178 338.3 354.116C339.418 352.784 339.774 350.892 339.059 349.177C338.038 346.726 335.225 345.569 332.773 346.589L315.468 353.799L306.201 348.448L315.503 344.85C317.979 343.892 319.209 341.108 318.252 338.632C317.294 336.157 314.512 334.927 312.034 335.883L295.511 342.277L285.765 336.651L301.922 330.728C303.814 330.033 305.072 328.233 305.074 326.218C305.076 324.202 303.82 322.401 301.929 321.704L283.014 314.735L293.764 308.527L325.077 321.173C325.667 321.412 326.276 321.524 326.876 321.524C328.778 321.524 330.579 320.388 331.335 318.516C332.329 316.055 331.139 313.253 328.677 312.259L304.331 302.427L315.099 296.21L332.342 302.882C332.913 303.103 333.499 303.207 334.075 303.207C336.003 303.207 337.823 302.039 338.56 300.133C339.518 297.657 338.287 294.873 335.811 293.915L325.79 290.038L337.296 283.395C339.595 282.068 340.383 279.128 339.055 276.828C337.729 274.529 334.787 273.742 332.489 275.069L321.139 281.621L322.603 270.314C322.944 267.681 321.087 265.27 318.454 264.929C315.821 264.585 313.409 266.446 313.069 269.079L310.66 287.671L299.549 294.086L302.871 267.47C303.2 264.836 301.331 262.434 298.696 262.105C296.066 261.778 293.66 263.645 293.331 266.28L289.108 300.115L280.249 305.229L283.073 288.988C283.419 287.002 282.489 285.012 280.744 284.003C278.999 282.994 276.705 283.18 275.155 284.47L260.624 296.479V284.042L275.651 272.642C277.76 271.03 278.217 268.013 276.605 265.903C274.993 263.794 271.896 263.39 269.787 265.002L260.624 271.942V260.71L275.651 249.31C277.76 247.698 278.217 244.681 276.605 242.572C274.993 240.463 271.896 240.058 269.787 241.67L260.624 248.61V235.807C260.624 233.152 258.472 231 255.817 231C253.161 231 251.009 233.152 251.009 235.807V248.756L242.77 242.034C240.703 240.367 237.729 240.695 236.065 242.763C234.399 244.831 234.645 247.857 236.713 249.522L251.009 261.1V272.087L242.77 265.366C240.703 263.699 237.729 264.026 236.065 266.095C234.399 268.162 234.645 271.188 236.713 272.853L251.009 284.433V295.9L237.396 284.442C235.848 283.149 233.713 282.96 231.967 283.967C230.221 284.974 229.315 286.962 229.657 288.948L232.602 305.966L224.142 301.076L219.922 267.242C219.593 264.607 217.185 262.745 214.559 263.067C211.924 263.396 210.056 265.798 210.385 268.432L213.707 295.048L202.595 288.632L200.185 270.04C199.845 267.408 197.437 265.549 194.801 265.891C192.169 266.232 190.311 268.643 190.652 271.275L192.116 282.582L180.212 275.709C177.911 274.381 174.972 275.168 173.645 277.468C172.318 279.767 173.106 282.707 175.405 284.035L187.468 290.999L177.446 294.877C174.97 295.835 173.739 298.618 174.697 301.094C175.434 303.001 177.253 304.168 179.181 304.168C179.757 304.168 180.344 304.064 180.914 303.843L198.158 297.172L208.925 303.388L184.579 313.22C182.117 314.214 180.928 317.016 181.923 319.478C182.679 321.35 184.479 322.486 186.382 322.486C186.981 322.486 187.59 322.373 188.18 322.135L219.493 309.489L228.973 314.962L210.78 321.632C208.888 322.326 207.629 324.127 207.627 326.142C207.626 328.157 208.882 329.959 210.773 330.656L226.3 336.376L215.856 342.406L200.216 335.889C197.765 334.866 194.951 336.026 193.929 338.477C192.908 340.928 194.067 343.743 196.517 344.764L205.378 348.455L195.65 354.072L180.01 347.556C177.56 346.533 174.745 347.693 173.724 350.144C172.702 352.595 173.861 355.409 176.312 356.43L185.172 360.122L175.404 365.761C173.105 367.089 172.317 370.029 173.645 372.328C174.535 373.87 176.151 374.732 177.812 374.732C178.627 374.732 179.455 374.524 180.211 374.087L192.084 367.233L190.148 379.669C189.739 382.293 191.535 384.75 194.159 385.158C194.409 385.197 194.658 385.216 194.904 385.216C197.233 385.216 199.278 383.521 199.648 381.147L202.774 361.059L212.29 355.567L210.353 368.003C209.945 370.626 211.741 373.083 214.364 373.492C214.615 373.531 214.864 373.549 215.109 373.549C217.438 373.549 219.484 371.854 219.853 369.481L222.98 349.394L233.071 343.568L229.627 363.37C229.282 365.356 230.211 367.346 231.956 368.355C233.7 369.363 235.781 369.177 237.332 367.887L251.009 356.412V365.779L224.273 386.758C222.181 388.393 221.863 391.414 223.498 393.505C225.133 395.598 228.075 395.967 230.166 394.333L251.009 377.98V390.409L236.482 402.196C234.414 403.861 234.141 406.887 235.807 408.954C237.472 411.021 240.418 411.347 242.486 409.683L251.009 402.753V417.193C251.009 419.848 253.161 422 255.817 422C258.472 422 260.624 419.848 260.624 417.193V403.304L269.555 410.048C270.426 410.713 271.505 411.035 272.523 411.035C273.971 411.035 275.427 410.384 276.373 409.147C277.985 407.037 277.488 404.02 275.379 402.408L260.623 391.205V378.373L281.884 394.38C282.751 395.037 283.824 395.354 284.834 395.354C286.289 395.354 287.752 394.697 288.697 393.447C290.3 391.33 289.789 388.315 287.671 386.714L260.623 366.317V355.925L275.091 367.918C275.976 368.657 277.125 369.035 278.226 369.035C279.051 369.035 279.906 368.824 280.653 368.393C282.4 367.387 283.346 365.398 283.003 363.412L279.709 344.26L290.252 350.344L292.759 369.688C293.072 372.111 295.141 373.878 297.521 373.878C297.726 373.878 297.935 373.865 298.145 373.837C300.777 373.497 302.635 371.086 302.294 368.453L300.733 356.395L310.291 361.913L311.223 367.903L312.967 381.354C313.28 383.776 315.348 385.543 317.727 385.543C317.933 385.543 318.142 385.531 318.352 385.503C320.807 385.185 322.586 383.067 322.538 380.648C322.699 380.031 322.739 379.373 322.635 378.704L320.982 368.086L332.489 374.729C333.247 375.167 334.073 375.374 334.888 375.374C336.549 375.374 338.165 374.512 339.055 372.97C340.383 370.669 339.595 367.729 337.296 366.402ZM286.33 326.203L274.917 330.387L265.409 324.898L272.179 320.989L286.33 326.203ZM271.254 300.227L269.241 311.492L260.624 316.437V308.988L271.254 300.227ZM241.273 300.205L251.009 308.424V316.707L243.289 312.219L241.273 300.205ZM226.37 326.156L239.821 321.226L246.182 324.898L237.134 330.122L226.37 326.156ZM241.235 352.13L243.759 337.305L251.009 333.088V343.903L241.235 352.13ZM271.214 352.154L260.624 343.398V333.359L268.722 338.004L271.214 352.154Z" stroke="white" stroke-width="16" mask="url(#path-2-outside-1)"/>
</svg>
