<?xml version="1.0" encoding="iso-8859-1"?>
<!-- Generator: Adobe Illustrator 17.1.0, SVG Export Plug-In . SVG Version: 6.00 Build 0)  -->
<!DOCTYPE svg PUBLIC "-//W3C//DTD SVG 1.1//EN" "http://www.w3.org/Graphics/SVG/1.1/DTD/svg11.dtd">
<svg version="1.1" id="Capa_1" xmlns="http://www.w3.org/2000/svg" xmlns:xlink="http://www.w3.org/1999/xlink" x="0px" y="0px"
	 viewBox="0 0 298 298" fill="#6166F7" style="enable-background:new 0 0 298 298;" xml:space="preserve">
<path d="M275.292,211.255l-16.989-9.81l14.512-5.614c1.85-0.716,3.247-2.088,4.044-3.744c1.743-2.078,2.299-5.03,1.184-7.706
	c-1.593-3.824-5.983-5.63-9.808-4.038l-26.999,11.249l-14.458-8.348l14.512-5.614c3.863-1.495,5.783-5.838,4.289-9.701
	c-1.494-3.862-5.835-5.781-9.701-4.289l-25.78,9.975l-15.205-8.778l25.208-9.241c2.952-1.083,4.915-3.892,4.918-7.036
	c0.003-3.145-1.957-5.956-4.907-7.043L190.6,130.644l16.773-9.685l48.855,19.73c0.921,0.372,1.871,0.548,2.806,0.548
	c2.968,0,5.778-1.773,6.957-4.693c1.552-3.841-0.305-8.212-4.146-9.763l-37.985-15.34l16.8-9.699l26.903,10.409
	c0.89,0.344,1.805,0.507,2.704,0.507c3.008,0,5.847-1.822,6.997-4.796c1.494-3.863-0.426-8.206-4.289-9.701l-15.635-6.049
	l17.952-10.365c3.587-2.071,4.816-6.658,2.745-10.245c-2.07-3.587-6.659-4.815-10.245-2.745L250.083,78.98l2.285-17.642
	c0.532-4.108-2.366-7.869-6.474-8.401c-4.107-0.538-7.87,2.366-8.401,6.474l-3.758,29.007l-17.337,10.01l5.184-41.527
	c0.513-4.11-2.403-7.858-6.514-8.371c-4.103-0.51-7.858,2.403-8.371,6.514l-6.589,52.79l-13.822,7.979l4.407-25.34
	c0.539-3.098-0.912-6.203-3.634-7.777c-2.722-1.575-6.302-1.284-8.72,0.729l-22.672,18.736V82.756l23.446-17.786
	c3.291-2.515,4.004-7.222,1.489-10.514c-2.516-3.291-7.347-3.921-10.638-1.406l-14.297,10.828V46.354l23.446-17.786
	c3.291-2.515,4.004-7.222,1.489-10.514c-2.516-3.29-7.347-3.922-10.638-1.406l-14.297,10.828V7.5c0-4.143-3.357-7.5-7.5-7.5
	c-4.143,0-7.5,3.357-7.5,7.5v20.203l-12.855-10.487c-3.226-2.601-7.865-2.09-10.462,1.137c-2.599,3.226-2.215,7.947,1.012,10.545
	l22.305,18.065v17.142l-12.855-10.487c-3.226-2.6-7.865-2.091-10.462,1.137c-2.599,3.226-2.215,7.947,1.012,10.545l22.305,18.066
	v17.891l-21.24-17.876c-2.415-2.017-5.746-2.312-8.47-0.741c-2.725,1.57-4.138,4.673-3.604,7.771l4.595,26.551l-13.2-7.628
	l-6.584-52.789c-0.513-4.111-4.27-7.016-8.368-6.514c-4.11,0.513-7.025,4.261-6.512,8.371l5.184,41.526l-17.337-10.01l-3.76-29.007
	c-0.531-4.107-4.289-7.007-8.401-6.474c-4.107,0.532-7.006,4.294-6.474,8.401l2.285,17.64L30.208,69.755
	c-3.59-2.071-8.175-0.843-10.245,2.745c-2.071,3.587-0.842,8.174,2.745,10.245l18.821,10.866l-15.637,6.05
	c-3.863,1.495-5.783,5.838-4.289,9.701c1.15,2.974,3.989,4.796,6.997,4.796c0.899,0,1.814-0.163,2.704-0.507l26.904-10.409
	l16.799,9.698l-37.985,15.341c-3.841,1.551-5.697,5.922-4.145,9.763c1.18,2.921,3.989,4.693,6.957,4.693
	c0.935,0,1.886-0.176,2.806-0.548l48.855-19.73l14.791,8.54L77.9,141.405c-2.952,1.083-4.915,3.892-4.918,7.036
	c-0.003,3.145,1.957,5.956,4.907,7.043l24.226,8.925l-16.295,9.407l-24.402-10.167c-3.824-1.596-8.214,0.214-9.808,4.038
	c-1.594,3.824,0.215,8.215,4.038,9.808l13.824,5.76l-15.177,8.763l-24.402-10.167c-3.823-1.595-8.214,0.214-9.808,4.038
	c-1.594,3.824,0.215,8.215,4.038,9.808l13.824,5.76l-15.24,8.799c-3.587,2.071-4.816,6.658-2.745,10.245
	c1.389,2.406,3.91,3.751,6.502,3.751c1.272,0,2.563-0.324,3.743-1.006l18.524-10.694l-3.021,19.403
	c-0.637,4.093,2.165,7.927,6.258,8.564c0.391,0.061,0.779,0.09,1.162,0.09c3.634,0,6.825-2.645,7.402-6.348l4.878-31.341
	l14.846-8.57l-3.021,19.403c-0.637,4.093,2.165,7.927,6.258,8.564c0.391,0.061,0.779,0.09,1.162,0.09
	c3.634,0,6.825-2.645,7.402-6.348l4.878-31.34l15.745-9.09l-5.374,30.896c-0.539,3.098,0.911,6.203,3.634,7.777
	c2.721,1.573,5.968,1.283,8.387-0.729l21.339-17.904v14.615l-41.714,32.731c-3.264,2.551-3.759,7.264-1.208,10.527
	c2.551,3.265,7.141,3.841,10.403,1.291l32.52-25.513v19.391l-22.666,18.39c-3.227,2.598-3.652,7.319-1.053,10.545
	c2.597,3.225,7.194,3.733,10.42,1.137l13.299-10.812V290.5c0,4.143,3.357,7.5,7.5,7.5c4.143,0,7.5-3.357,7.5-7.5v-21.669
	l13.935,10.521c1.359,1.038,3.043,1.541,4.631,1.54c2.258,0,4.531-1.015,6.007-2.946c2.515-3.292,1.739-7.998-1.552-10.514
	l-23.022-17.479v-20.021l33.171,24.975c1.354,1.025,3.027,1.52,4.603,1.52c2.27,0,4.553-1.025,6.028-2.975
	c2.5-3.303,1.703-8.007-1.601-10.506l-42.201-31.823v-16.214l22.573,18.712c1.381,1.153,3.173,1.743,4.892,1.743
	c1.286,0,2.62-0.33,3.786-1.002c2.725-1.57,4.201-4.673,3.666-7.771l-5.139-29.882l16.449,9.493l3.912,30.18
	c0.489,3.78,3.716,6.537,7.429,6.537c0.321,0,0.647-0.02,0.974-0.063c4.107-0.531,7.006-4.293,6.474-8.401l-2.436-18.813
	l14.913,8.61l1.454,9.345l2.72,20.986c0.489,3.78,3.715,6.537,7.428,6.537c0.321,0,0.646-0.02,0.974-0.063
	c3.83-0.496,6.606-3.801,6.532-7.575c0.25-0.962,0.313-1.989,0.151-3.033l-2.579-16.566l17.953,10.365
	c1.182,0.682,2.471,1.006,3.743,1.006c2.592,0,5.113-1.345,6.502-3.751C280.108,217.913,278.879,213.326,275.292,211.255z
	 M195.775,148.536l-17.808,6.528l-14.834-8.564l10.563-6.098L195.775,148.536z M172.252,108.009l-3.14,17.575l-13.445,7.715v-11.621
	L172.252,108.009z M125.476,107.974l15.191,12.824v12.923l-12.045-7.002L125.476,107.974z M102.225,148.464l20.986-7.693l9.924,5.73
	l-14.117,8.15L102.225,148.464z M125.416,188.988l3.939-23.13l11.312-6.579v16.874L125.416,188.988z M172.191,189.025l-16.524-13.66
	v-15.664l12.636,7.248L172.191,189.025z"/>
<g>
</g>
<g>
</g>
<g>
</g>
<g>
</g>
<g>
</g>
<g>
</g>
<g>
</g>
<g>
</g>
<g>
</g>
<g>
</g>
<g>
</g>
<g>
</g>
<g>
</g>
<g>
</g>
<g>
</g>
</svg>
